<svg version="1.1" id="Layer_1" xmlns="http://www.w3.org/2000/svg" xmlns:xlink="http://www.w3.org/1999/xlink" x="0px" y="0px"
	 width="100%" viewBox="0 0 1271 985" enable-background="new 0 0 1271 985" xml:space="preserve">
<path fill="#000000" opacity="1.000000" stroke="none" 
	d="
M639.000000,986.000000 
	C426.023499,986.000000 213.547012,986.000000 1.035262,986.000000 
	C1.035262,657.726501 1.035262,329.453003 1.035262,1.089746 
	C424.559967,1.089746 848.119934,1.089746 1271.839966,1.089746 
	C1271.839966,329.333282 1271.839966,657.666626 1271.839966,986.000000 
	C1061.119385,986.000000 850.309692,986.000000 639.000000,986.000000 
M817.919250,434.363708 
	C814.915771,451.397583 811.917664,468.432434 808.907837,485.465179 
	C800.022095,535.749756 791.123901,586.032166 782.255249,636.319763 
	C781.380859,641.277832 780.676697,646.265869 779.890747,651.257812 
	C781.184326,651.520020 781.664429,651.702209 782.144653,651.702515 
	C812.977173,651.718750 843.809875,651.685059 874.642090,651.775269 
	C877.864929,651.784668 878.754089,650.497498 879.280579,647.472412 
	C886.408936,606.510193 893.787415,565.591370 900.798096,524.609436 
	C901.505493,520.474304 903.185181,519.986633 906.623047,519.992981 
	C948.455200,520.069946 990.287598,520.044617 1032.119873,520.045715 
	C1033.906860,520.045776 1035.693726,520.045776 1037.734741,520.045776 
	C1042.760742,491.245758 1047.687622,463.014191 1052.742676,434.047607 
	C1006.913696,434.047607 962.164368,434.047607 916.753967,434.047607 
	C920.003784,415.976715 923.132507,398.579224 926.327393,380.813904 
	C976.201538,380.813904 1025.457520,380.813904 1074.896729,380.813904 
	C1080.081543,352.142853 1085.185669,323.917664 1090.356689,295.322998 
	C1007.245850,295.322998 924.992554,295.322998 842.372559,295.322998 
	C834.227112,341.518982 826.117493,387.511841 817.919250,434.363708 
M340.286835,417.922577 
	C347.467865,377.142914 354.648895,336.363220 361.848206,295.479797 
	C328.154236,295.479797 294.773407,295.479797 261.393433,295.479797 
	C240.478592,414.294250 219.634781,532.705200 198.746063,651.371399 
	C280.117584,651.371399 360.863678,651.371399 441.759766,651.371399 
	C448.940796,622.293091 456.060486,593.463074 463.355316,563.923950 
	C413.493835,563.923950 364.297699,563.923950 314.770752,563.923950 
	C317.078003,550.684692 319.269379,538.071655 321.475006,525.461243 
	C327.695099,489.898712 333.921112,454.337219 340.286835,417.922577 
M727.198975,651.687988 
	C731.260986,652.463806 732.989807,650.719116 733.936890,646.694580 
	C738.316956,628.083496 743.026978,609.550110 747.591797,590.982300 
	C749.751221,582.198364 751.849976,573.399475 754.130188,563.970886 
	C704.262817,563.970886 655.185425,563.970886 605.614746,563.970886 
	C621.358704,474.161591 637.003784,384.916290 652.709534,295.324707 
	C618.969971,295.324707 585.732727,295.324707 552.276794,295.324707 
	C531.375488,414.064362 510.515839,532.567078 489.548187,651.683655 
	C569.035706,651.683655 647.648132,651.683655 727.198975,651.687988 
M239.499969,683.097534 
	C417.152618,683.097534 594.805298,683.099426 772.457947,683.095215 
	C795.619324,683.094666 818.781128,682.970398 841.942078,683.065613 
	C883.768250,683.237488 925.594360,683.717224 967.419678,683.641235 
	C977.510315,683.622864 987.896423,683.156433 997.628601,680.777039 
	C1022.793518,674.624512 1043.187134,661.412354 1054.288452,636.874634 
	C1065.972046,611.050171 1054.439087,585.721008 1027.072266,578.652649 
	C1018.766785,576.507507 1009.566467,577.294373 1000.802673,577.573853 
	C985.346924,578.066772 969.870056,579.899353 954.813965,574.542847 
	C954.008911,574.256409 953.039124,574.432800 950.721436,574.331482 
	C955.966370,580.034607 961.602661,582.736938 967.415894,584.893188 
	C985.121521,591.460266 1002.916748,597.785645 1020.686218,604.179993 
	C1020.934021,604.269165 1021.299072,604.032288 1022.888733,603.598328 
	C1016.891541,598.556213 1011.460388,593.989990 1005.085327,588.630188 
	C1010.470093,589.175476 1014.760437,589.287781 1018.916992,590.091675 
	C1031.055176,592.439087 1041.786743,597.123657 1045.381226,610.371704 
	C1048.010864,620.063232 1045.477661,629.240845 1040.164429,637.514648 
	C1030.189819,653.047241 1015.749146,662.621521 998.321106,668.000549 
	C985.870117,671.843445 972.977600,671.668701 960.188049,671.724792 
	C901.698486,671.981201 843.207947,672.094482 784.717712,672.106689 
	C590.565979,672.147217 396.414276,672.122009 202.262543,672.122009 
	C200.482925,672.122009 198.703308,672.122009 196.734222,672.122009 
	C196.734222,676.034729 196.734222,679.440369 196.734222,683.097534 
	C210.854782,683.097534 224.677383,683.097534 239.499969,683.097534 
M525.974365,703.376953 
	C523.713074,697.986328 519.507202,702.257874 516.211243,700.842041 
	C516.211243,710.168823 516.211243,718.901062 516.211243,727.749878 
	C518.170898,727.749878 519.894714,727.749878 522.014771,727.749878 
	C522.014771,722.175232 522.014771,716.856079 522.014771,711.536926 
	C522.285156,711.513428 522.555542,711.489990 522.825989,711.466492 
	C523.813843,716.924377 524.801697,722.382202 525.771545,727.740601 
	C529.071533,727.740601 531.977173,727.740601 534.917236,727.740601 
	C534.917236,718.715088 534.917236,709.973572 534.917236,701.188904 
	C532.952087,701.188904 531.228149,701.188904 529.139893,701.188904 
	C529.139893,706.552979 529.139893,711.625854 529.139893,716.698730 
	C528.846924,716.732361 528.553955,716.765930 528.261047,716.799561 
	C527.520874,712.615906 526.780640,708.432251 525.974365,703.376953 
M668.025513,703.438110 
	C662.570557,702.255981 657.115662,701.073853 651.188843,699.789429 
	C651.188843,710.090637 651.188843,718.822266 651.188843,727.859253 
	C655.352112,727.859253 659.449280,728.505066 663.189697,727.628418 
	C665.614868,727.060059 668.331238,724.667603 669.456482,722.375427 
	C670.949463,719.333984 669.681763,716.179932 665.860840,714.475342 
	C670.400757,711.825562 670.236206,708.123535 668.025513,703.438110 
M735.026062,714.388306 
	C735.655884,711.348328 737.512146,707.816711 736.549561,705.414978 
	C735.691345,703.273743 731.861938,701.757507 729.076904,701.105469 
	C725.972290,700.378662 722.566345,700.938904 719.039673,700.938904 
	C719.039673,705.732971 719.039612,710.032288 719.039612,714.331604 
	C719.039612,718.786072 719.039673,723.240601 719.039673,727.729187 
	C721.208252,727.729187 722.936584,727.729187 725.161011,727.729187 
	C725.161011,724.234741 725.161011,721.014343 725.161011,717.795288 
	C734.583679,716.845276 729.301331,724.803528 731.668457,727.580505 
	C733.815613,727.580505 735.692139,727.580505 738.785339,727.580505 
	C737.189209,722.843811 735.850891,718.872375 735.026062,714.388306 
M836.561279,716.739563 
	C836.063232,714.475342 835.512695,712.221130 835.076294,709.945068 
	C833.255737,700.449951 833.268066,700.441956 823.659058,700.958252 
	C823.190979,700.983398 822.735962,701.252380 822.277588,701.406860 
	C820.449768,710.145264 818.633850,718.827087 816.767700,727.748596 
	C819.024719,727.748596 820.760193,727.748596 822.686340,727.748596 
	C823.063232,720.527710 827.960083,723.190308 831.653442,723.073181 
	C832.233032,724.840027 832.731873,726.360779 833.285583,728.048767 
	C835.285278,727.955261 837.012634,727.874451 838.930298,727.784729 
	C838.139221,724.012878 837.461487,720.781799 836.561279,716.739563 
M350.721405,712.637207 
	C349.894806,708.786499 349.068176,704.935852 348.243500,701.094116 
	C344.422546,701.094116 340.975342,701.094116 337.344696,701.094116 
	C335.474762,710.047241 333.640503,718.829712 331.789734,727.691040 
	C334.165497,727.691040 335.899414,727.691040 337.532623,727.691040 
	C338.052917,725.960876 338.475037,724.557251 338.934387,723.029785 
	C341.530121,723.029785 343.980408,723.029785 346.578033,723.029785 
	C347.196350,724.728821 347.788452,726.355774 348.419922,728.090881 
	C350.326172,727.974121 351.927368,727.876099 353.900543,727.755249 
	C352.846222,722.750427 351.867767,718.105896 350.721405,712.637207 
M496.707947,707.638062 
	C495.001587,699.946106 494.608398,699.745911 484.315063,701.390442 
	C482.534149,709.761658 480.742432,718.165283 478.974152,726.573853 
	C478.914459,726.857605 479.090485,727.190979 479.211884,727.760254 
	C480.903046,727.760254 482.641907,727.760254 484.321503,727.760254 
	C486.036499,722.358521 486.036499,722.358521 493.716034,723.246765 
	C494.191010,724.719604 494.683350,726.246277 495.153137,727.703064 
	C497.141327,727.703064 498.885559,727.703064 500.862183,727.703064 
	C499.489166,721.056580 498.188568,714.760681 496.707947,707.638062 
M551.748047,727.897827 
	C555.238892,727.914307 558.744690,728.140503 562.216858,727.894043 
	C566.529480,727.587830 569.749329,725.252014 569.730957,720.764526 
	C569.671326,706.194641 573.007446,699.502197 552.201599,700.973328 
	C551.914734,700.993591 551.644104,701.242554 551.342468,701.396729 
	C551.238159,701.674316 551.030640,701.969116 551.030823,702.263733 
	C551.036072,710.578430 551.062195,718.893066 551.748047,727.897827 
M759.044067,710.792725 
	C759.869080,708.844421 760.600952,706.841614 761.659363,705.029602 
	C761.768494,704.842773 764.593140,705.525024 764.851318,706.261719 
	C766.241760,710.229431 768.979919,708.994629 771.684631,708.672241 
	C770.385071,702.244141 767.217285,700.019897 760.634705,700.686096 
	C755.467468,701.209045 753.056885,704.067932 752.989197,709.839233 
	C752.950195,713.168335 752.886841,716.502197 753.014648,719.826965 
	C753.216187,725.070007 756.223877,727.940186 761.571777,728.201904 
	C767.903625,728.511780 771.173096,726.154480 771.798523,720.593933 
	C772.035950,718.483276 771.837097,716.323608 771.837097,713.715759 
	C769.274292,713.715759 766.962891,713.599792 764.674866,713.779846 
	C763.891602,713.841492 762.508606,714.707642 762.545715,715.096924 
	C762.635925,716.043884 763.391235,716.930542 763.890991,717.834717 
	C764.528992,718.989075 765.976868,720.521362 765.648376,721.202881 
	C765.064880,722.413513 763.338867,723.892944 762.218811,723.794983 
	C761.099854,723.697266 759.438965,721.912842 759.246643,720.676331 
	C758.791199,717.747681 759.065613,714.705505 759.044067,710.792725 
M901.141357,706.424744 
	C903.037292,707.531677 904.933167,708.638611 907.730591,710.271912 
	C906.695374,702.374390 903.054443,699.809448 896.339661,700.584167 
	C892.721252,701.001587 889.891235,702.467590 889.166138,706.335632 
	C888.404968,710.396423 889.802979,713.560486 893.680054,715.351624 
	C895.787476,716.325256 898.122681,716.920349 900.019897,718.187866 
	C901.005676,718.846436 901.532104,720.555603 901.727661,721.870239 
	C901.816162,722.465027 900.586975,723.841797 899.966125,723.835510 
	C898.624939,723.821838 896.442932,723.498413 896.099304,722.676636 
	C894.561829,719.000488 891.939087,719.716187 889.160950,720.281189 
	C890.201660,726.595642 893.974854,729.054382 901.096191,728.185608 
	C904.551331,727.764099 907.137817,726.223145 907.866516,722.627747 
	C908.588135,719.067932 907.708191,715.922913 904.401978,714.001648 
	C902.554077,712.927795 900.215942,712.587830 898.569275,711.310486 
	C897.132874,710.196289 896.356140,708.231812 895.287903,706.643005 
	C897.104797,706.331543 898.921753,706.020081 901.141357,706.424744 
M862.593933,711.010681 
	C861.821045,709.555115 860.901550,708.147461 860.396851,706.604126 
	C860.293823,706.289001 861.905640,704.853455 862.455322,704.994446 
	C863.850281,705.351868 865.062805,706.369202 866.400513,707.014343 
	C868.291199,707.926331 870.228699,708.741272 872.893555,709.931458 
	C871.470459,702.137390 867.922058,699.735657 861.193909,700.613831 
	C857.577759,701.085876 854.787537,702.581787 854.133972,706.490173 
	C853.490295,710.339355 854.742676,713.422058 858.388977,715.190125 
	C860.475159,716.201721 862.802673,716.790894 864.729248,718.026062 
	C865.773987,718.695862 866.568787,720.264465 866.768982,721.538818 
	C866.877441,722.228882 865.527039,723.797668 864.787781,723.828125 
	C863.490845,723.881409 861.322876,723.390930 860.983154,722.542297 
	C859.437683,718.681946 856.754822,719.998352 854.139954,720.257507 
	C854.251587,726.482544 859.388306,728.419678 864.300842,728.305603 
	C868.450989,728.209106 871.939880,727.068848 872.914612,722.419922 
	C873.892822,717.754578 871.707825,714.604004 866.098389,712.341492 
	C865.176086,711.969482 864.232483,711.650391 862.593933,711.010681 
M372.441925,728.016113 
	C373.288910,726.990662 374.726746,726.039429 374.866730,724.925171 
	C375.218231,722.127258 374.982941,719.255615 374.982941,716.066223 
	C379.968597,720.002502 378.371490,730.294495 388.457642,727.647583 
	C388.229828,726.892944 388.228149,726.100464 387.831360,725.689514 
	C380.345154,717.935486 380.482147,710.188049 387.713745,702.369507 
	C387.880859,702.188843 387.766357,701.747620 387.789948,701.300415 
	C378.397736,698.188782 379.571869,708.328552 374.787354,711.974060 
	C374.787354,707.967041 374.787354,704.553162 374.787354,700.863098 
	C372.677826,700.957214 370.948151,701.034363 368.980469,701.122192 
	C368.980469,709.504028 368.902466,717.480103 369.091400,725.449890 
	C369.112152,726.324341 370.665588,727.162415 372.441925,728.016113 
M688.664734,728.021545 
	C692.497375,728.017395 696.338440,728.146423 700.156250,727.906494 
	C701.008972,727.852844 701.780273,726.503967 702.588989,725.751404 
	C701.798340,725.141846 701.041809,724.067627 700.210876,724.006592 
	C697.277039,723.791138 694.317749,723.922729 691.159241,723.922729 
	C691.061035,722.271118 690.921753,721.136047 690.946594,720.004517 
	C690.971069,718.894836 691.162598,717.788818 691.302002,716.481750 
	C693.395386,716.481750 695.284119,716.764038 697.030762,716.387512 
	C698.302917,716.113281 699.387634,714.969666 700.555908,714.213684 
	C699.445007,713.562622 698.395386,712.541443 697.209229,712.344971 
	C695.305969,712.029785 693.312317,712.260498 690.931580,712.260498 
	C690.931580,710.701233 690.881104,709.576355 690.945923,708.458130 
	C691.009644,707.358459 691.190552,706.265686 691.312866,705.229980 
	C702.580872,704.529602 702.580872,704.529602 701.860535,701.267944 
	C696.239868,701.267944 690.666199,701.267944 684.979065,701.267944 
	C684.979065,709.303833 684.865356,716.963562 685.100647,724.612549 
	C685.136353,725.773071 686.793457,726.883728 688.664734,728.021545 
M421.424072,701.656677 
	C415.754669,701.298523 410.085236,700.940430 404.357056,700.578552 
	C404.357056,710.207764 404.357056,719.045654 404.357056,728.013855 
	C409.548981,728.013855 414.366486,728.122498 419.169983,727.911621 
	C420.015503,727.874451 420.802307,726.499817 421.616272,725.742859 
	C420.827515,725.136230 420.072601,724.067078 419.243927,724.006470 
	C416.313904,723.792297 413.358673,723.923096 410.210144,723.923096 
	C410.210144,721.200562 410.210144,718.978027 410.210144,716.467590 
	C412.813446,716.467590 415.151184,716.641785 417.435760,716.369690 
	C418.198425,716.278870 418.825104,715.046509 419.513916,714.335938 
	C418.795288,713.648254 418.132202,712.453613 417.347687,712.367676 
	C414.961182,712.106262 412.527802,712.272888 410.218201,712.272888 
	C410.218201,709.475891 410.218201,707.403015 410.218201,704.998779 
	C413.135986,704.998779 415.798553,705.249390 418.374420,704.885681 
	C419.541779,704.720947 420.537018,703.336914 421.424072,701.656677 
M607.334839,700.878967 
	C603.595154,700.878967 599.855469,700.878967 596.286255,700.878967 
	C596.286255,710.373962 596.286255,719.118286 596.286255,728.071777 
	C598.345398,727.965332 600.079041,727.875671 602.069824,727.772766 
	C602.069824,723.846375 602.069824,720.400940 602.069824,716.484070 
	C604.640564,716.484070 606.947144,716.650818 609.206482,716.396667 
	C610.034973,716.303467 610.751343,715.213562 611.518860,714.578369 
	C610.716125,713.805786 609.991089,712.496033 609.095276,712.366455 
	C606.868469,712.044434 604.563843,712.260620 602.328552,712.260620 
	C602.328552,709.523499 602.328552,707.329346 602.328552,705.167358 
	C613.689331,704.652466 613.689331,704.652466 612.699219,700.878845 
	C611.252380,700.878845 609.760254,700.878845 607.334839,700.878967 
M302.572296,700.913513 
	C302.048187,701.400085 301.072601,701.881714 301.067139,702.374023 
	C300.973572,710.808411 300.999908,719.244141 300.999908,727.610535 
	C314.462189,728.998291 316.172485,728.546387 314.926453,723.740479 
	C312.420410,723.740479 309.821625,723.740479 307.007629,723.740479 
	C307.007629,716.913513 306.848938,710.444397 307.078735,703.989075 
	C307.183746,701.038696 305.822540,700.636841 302.572296,700.913513 
M793.691345,723.836792 
	C793.411316,722.103638 792.920349,720.374146 792.889709,718.636597 
	C792.787842,712.852112 792.851196,707.064697 792.851196,701.145874 
	C790.813538,701.145874 789.082031,701.145874 787.219116,701.145874 
	C787.219116,710.138184 787.219116,718.873779 787.219116,728.010559 
	C791.436279,728.010559 795.402710,728.137512 799.348999,727.912354 
	C800.225830,727.862366 801.031860,726.571045 801.870422,725.851135 
	C800.953979,725.209045 800.112915,724.233459 799.102844,724.005005 
	C797.675415,723.682190 796.123108,723.911316 793.691345,723.836792 
M462.872955,725.549316 
	C459.977570,724.716370 457.082184,723.883362 453.781219,722.933716 
	C453.781219,715.895447 453.781219,708.512817 453.781219,700.856689 
	C451.696198,700.956238 449.967346,701.038757 448.220428,701.122192 
	C448.220428,710.216980 448.220428,718.914307 448.220428,728.015930 
	C451.256195,728.015930 454.051392,728.212585 456.803131,727.951355 
	C458.855743,727.756470 460.852173,726.969910 462.872955,725.549316 
M630.051880,714.498718 
	C630.051880,718.931274 630.051880,723.363770 630.051880,728.064148 
	C632.331482,727.951904 634.061768,727.866699 635.689575,727.786621 
	C635.689575,718.567871 635.689575,709.829407 635.689575,700.840027 
	C633.637695,700.946960 631.906860,701.037109 630.051025,701.133850 
	C630.051025,705.555115 630.051025,709.530334 630.051880,714.498718 
z"/>
<path fill="#4577A9" opacity="1.000000" stroke="none" 
	d="
M817.963562,433.934204 
	C826.117493,387.511841 834.227112,341.518982 842.372559,295.322998 
	C924.992554,295.322998 1007.245850,295.322998 1090.356689,295.322998 
	C1085.185669,323.917664 1080.081543,352.142853 1074.896729,380.813904 
	C1025.457520,380.813904 976.201538,380.813904 926.327393,380.813904 
	C923.132507,398.579224 920.003784,415.976715 916.753967,434.047607 
	C962.164368,434.047607 1006.913696,434.047607 1052.742676,434.047607 
	C1047.687622,463.014191 1042.760742,491.245758 1037.734741,520.045776 
	C1035.693726,520.045776 1033.906860,520.045776 1032.119873,520.045715 
	C990.287598,520.044617 948.455200,520.069946 906.623047,519.992981 
	C903.185181,519.986633 901.505493,520.474304 900.798096,524.609436 
	C893.787415,565.591370 886.408936,606.510193 879.280579,647.472412 
	C878.754089,650.497498 877.864929,651.784668 874.642090,651.775269 
	C843.809875,651.685059 812.977173,651.718750 782.144653,651.702515 
	C781.664429,651.702209 781.184326,651.520020 779.890747,651.257812 
	C780.676697,646.265869 781.380859,641.277832 782.255249,636.319763 
	C791.123901,586.032166 800.022095,535.749756 808.907837,485.465179 
	C811.917664,468.432434 814.915771,451.397583 817.963562,433.934204 
z"/>
<path fill="#A8CFF1" opacity="1.000000" stroke="none" 
	d="
M340.215820,418.348938 
	C333.921112,454.337219 327.695099,489.898712 321.475006,525.461243 
	C319.269379,538.071655 317.078003,550.684692 314.770752,563.923950 
	C364.297699,563.923950 413.493835,563.923950 463.355316,563.923950 
	C456.060486,593.463074 448.940796,622.293091 441.759766,651.371399 
	C360.863678,651.371399 280.117584,651.371399 198.746063,651.371399 
	C219.634781,532.705200 240.478592,414.294250 261.393433,295.479797 
	C294.773407,295.479797 328.154236,295.479797 361.848206,295.479797 
	C354.648895,336.363220 347.467865,377.142914 340.215820,418.348938 
z"/>
<path fill="#6CA3D5" opacity="1.000000" stroke="none" 
	d="
M726.729736,651.685791 
	C647.648132,651.683655 569.035706,651.683655 489.548187,651.683655 
	C510.515839,532.567078 531.375488,414.064362 552.276794,295.324707 
	C585.732727,295.324707 618.969971,295.324707 652.709534,295.324707 
	C637.003784,384.916290 621.358704,474.161591 605.614746,563.970886 
	C655.185425,563.970886 704.262817,563.970886 754.130188,563.970886 
	C751.849976,573.399475 749.751221,582.198364 747.591797,590.982300 
	C743.026978,609.550110 738.316956,628.083496 733.936890,646.694580 
	C732.989807,650.719116 731.260986,652.463806 726.729736,651.685791 
z"/>
<path fill="#F2F2F2" opacity="1.000000" stroke="none" 
	d="
M238.999969,683.097534 
	C224.677383,683.097534 210.854782,683.097534 196.734222,683.097534 
	C196.734222,679.440369 196.734222,676.034729 196.734222,672.122009 
	C198.703308,672.122009 200.482925,672.122009 202.262543,672.122009 
	C396.414276,672.122009 590.565979,672.147217 784.717712,672.106689 
	C843.207947,672.094482 901.698486,671.981201 960.188049,671.724792 
	C972.977600,671.668701 985.870117,671.843445 998.321106,668.000549 
	C1015.749146,662.621521 1030.189819,653.047241 1040.164429,637.514648 
	C1045.477661,629.240845 1048.010864,620.063232 1045.381226,610.371704 
	C1041.786743,597.123657 1031.055176,592.439087 1018.916992,590.091675 
	C1014.760437,589.287781 1010.470093,589.175476 1005.085327,588.630188 
	C1011.460388,593.989990 1016.891541,598.556213 1022.888733,603.598328 
	C1021.299072,604.032288 1020.934021,604.269165 1020.686218,604.179993 
	C1002.916748,597.785645 985.121521,591.460266 967.415894,584.893188 
	C961.602661,582.736938 955.966370,580.034607 950.721436,574.331482 
	C953.039124,574.432800 954.008911,574.256409 954.813965,574.542847 
	C969.870056,579.899353 985.346924,578.066772 1000.802673,577.573853 
	C1009.566467,577.294373 1018.766785,576.507507 1027.072266,578.652649 
	C1054.439087,585.721008 1065.972046,611.050171 1054.288452,636.874634 
	C1043.187134,661.412354 1022.793518,674.624512 997.628601,680.777039 
	C987.896423,683.156433 977.510315,683.622864 967.419678,683.641235 
	C925.594360,683.717224 883.768250,683.237488 841.942078,683.065613 
	C818.781128,682.970398 795.619324,683.094666 772.457947,683.095215 
	C594.805298,683.099426 417.152618,683.097534 238.999969,683.097534 
z"/>
<path fill="#EDEDED" opacity="1.000000" stroke="none" 
	d="
M526.007446,703.812805 
	C526.780640,708.432251 527.520874,712.615906 528.261047,716.799561 
	C528.553955,716.765930 528.846924,716.732361 529.139893,716.698730 
	C529.139893,711.625854 529.139893,706.552979 529.139893,701.188904 
	C531.228149,701.188904 532.952087,701.188904 534.917236,701.188904 
	C534.917236,709.973572 534.917236,718.715088 534.917236,727.740601 
	C531.977173,727.740601 529.071533,727.740601 525.771545,727.740601 
	C524.801697,722.382202 523.813843,716.924377 522.825989,711.466492 
	C522.555542,711.489990 522.285156,711.513428 522.014771,711.536926 
	C522.014771,716.856079 522.014771,722.175232 522.014771,727.749878 
	C519.894714,727.749878 518.170898,727.749878 516.211243,727.749878 
	C516.211243,718.901062 516.211243,710.168823 516.211243,700.842041 
	C519.507202,702.257874 523.713074,697.986328 526.007446,703.812805 
z"/>
<path fill="#EDEDED" opacity="1.000000" stroke="none" 
	d="
M668.252319,703.756042 
	C670.236206,708.123535 670.400757,711.825562 665.860840,714.475342 
	C669.681763,716.179932 670.949463,719.333984 669.456482,722.375427 
	C668.331238,724.667603 665.614868,727.060059 663.189697,727.628418 
	C659.449280,728.505066 655.352112,727.859253 651.188843,727.859253 
	C651.188843,718.822266 651.188843,710.090637 651.188843,699.789429 
	C657.115662,701.073853 662.570557,702.255981 668.252319,703.756042 
M660.019836,716.439941 
	C653.585938,716.865784 658.280762,721.260376 657.535217,724.153442 
	C659.891174,723.633789 662.147522,722.823975 663.344727,721.222351 
	C663.784607,720.633972 661.720093,718.173401 660.019836,716.439941 
M661.098328,705.132996 
	C659.831665,705.132996 658.565063,705.132996 657.125244,705.132996 
	C657.125244,707.587280 657.125244,709.690063 657.125244,712.704407 
	C659.276489,712.035583 661.830444,711.983337 662.515564,710.825317 
	C663.238403,709.603760 662.177979,707.327087 661.098328,705.132996 
z"/>
<path fill="#EBEBEB" opacity="1.000000" stroke="none" 
	d="
M734.769348,714.644592 
	C735.850891,718.872375 737.189209,722.843811 738.785339,727.580505 
	C735.692139,727.580505 733.815613,727.580505 731.668457,727.580505 
	C729.301331,724.803528 734.583679,716.845276 725.161011,717.795288 
	C725.161011,721.014343 725.161011,724.234741 725.161011,727.729187 
	C722.936584,727.729187 721.208252,727.729187 719.039673,727.729187 
	C719.039673,723.240601 719.039612,718.786072 719.039612,714.331604 
	C719.039612,710.032288 719.039673,705.732971 719.039673,700.938904 
	C722.566345,700.938904 725.972290,700.378662 729.076904,701.105469 
	C731.861938,701.757507 735.691345,703.273743 736.549561,705.414978 
	C737.512146,707.816711 735.655884,711.348328 734.769348,714.644592 
M724.940308,707.724243 
	C724.940308,709.495178 724.940308,711.266174 724.940308,714.739990 
	C727.715942,712.942505 730.104187,712.197693 730.855286,710.655579 
	C731.455078,709.424194 730.061035,707.221741 729.552002,705.450378 
	C728.022583,705.905212 726.493103,706.360107 724.940308,707.724243 
z"/>
<path fill="#EDEDED" opacity="1.000000" stroke="none" 
	d="
M836.672546,717.145142 
	C837.461487,720.781799 838.139221,724.012878 838.930298,727.784729 
	C837.012634,727.874451 835.285278,727.955261 833.285583,728.048767 
	C832.731873,726.360779 832.233032,724.840027 831.653442,723.073181 
	C827.960083,723.190308 823.063232,720.527710 822.686340,727.748596 
	C820.760193,727.748596 819.024719,727.748596 816.767700,727.748596 
	C818.633850,718.827087 820.449768,710.145264 822.277588,701.406860 
	C822.735962,701.252380 823.190979,700.983398 823.659058,700.958252 
	C833.268066,700.441956 833.255737,700.449951 835.076294,709.945068 
	C835.512695,712.221130 836.063232,714.475342 836.672546,717.145142 
M828.885742,707.663696 
	C828.484497,707.015320 828.083313,706.366943 827.339417,705.164856 
	C826.318298,709.947754 825.441345,714.055298 824.501587,718.457153 
	C827.118103,718.457153 828.858215,718.457153 831.086731,718.457153 
	C830.350708,714.883484 829.690979,711.680359 828.885742,707.663696 
z"/>
<path fill="#EDEDED" opacity="1.000000" stroke="none" 
	d="
M350.805359,713.049316 
	C351.867767,718.105896 352.846222,722.750427 353.900543,727.755249 
	C351.927368,727.876099 350.326172,727.974121 348.419922,728.090881 
	C347.788452,726.355774 347.196350,724.728821 346.578033,723.029785 
	C343.980408,723.029785 341.530121,723.029785 338.934387,723.029785 
	C338.475037,724.557251 338.052917,725.960876 337.532623,727.691040 
	C335.899414,727.691040 334.165497,727.691040 331.789734,727.691040 
	C333.640503,718.829712 335.474762,710.047241 337.344696,701.094116 
	C340.975342,701.094116 344.422546,701.094116 348.243500,701.094116 
	C349.068176,704.935852 349.894806,708.786499 350.805359,713.049316 
M343.294525,718.763611 
	C344.128723,718.396423 345.721680,717.901062 345.684540,717.681091 
	C345.011139,713.694519 344.141449,709.741089 343.313599,705.780640 
	C341.506531,709.080750 340.776581,712.134705 340.102142,715.200989 
	C339.672058,717.156372 339.546997,718.982178 343.294525,718.763611 
z"/>
<path fill="#EDEDED" opacity="1.000000" stroke="none" 
	d="
M496.797974,708.051453 
	C498.188568,714.760681 499.489166,721.056580 500.862183,727.703064 
	C498.885559,727.703064 497.141327,727.703064 495.153137,727.703064 
	C494.683350,726.246277 494.191010,724.719604 493.716034,723.246765 
	C486.036499,722.358521 486.036499,722.358521 484.321503,727.760254 
	C482.641907,727.760254 480.903046,727.760254 479.211884,727.760254 
	C479.090485,727.190979 478.914459,726.857605 478.974152,726.573853 
	C480.742432,718.165283 482.534149,709.761658 484.315063,701.390442 
	C494.608398,699.745911 495.001587,699.946106 496.797974,708.051453 
M490.835052,707.272888 
	C490.506866,706.740112 490.178680,706.207275 489.400513,704.943970 
	C488.349243,709.869934 487.463531,714.020020 486.519073,718.445435 
	C489.163452,718.445435 490.895905,718.445435 493.064941,718.445435 
	C492.317413,714.718811 491.644348,711.363403 490.835052,707.272888 
z"/>
<path fill="#EEEEEE" opacity="1.000000" stroke="none" 
	d="
M551.416504,727.552795 
	C551.062195,718.893066 551.036072,710.578430 551.030823,702.263733 
	C551.030640,701.969116 551.238159,701.674316 551.342468,701.396729 
	C551.644104,701.242554 551.914734,700.993591 552.201599,700.973328 
	C573.007446,699.502197 569.671326,706.194641 569.730957,720.764526 
	C569.749329,725.252014 566.529480,727.587830 562.216858,727.894043 
	C558.744690,728.140503 555.238892,727.914307 551.416504,727.552795 
M560.096130,704.989014 
	C559.036560,705.773804 557.102051,706.514099 557.059448,707.350647 
	C556.782776,712.785583 556.917480,718.241394 556.917480,725.141907 
	C559.764282,723.649963 562.323730,723.147705 563.290771,721.630554 
	C565.427429,718.278076 563.491394,707.239502 560.096130,704.989014 
z"/>
<path fill="#EEEEEE" opacity="1.000000" stroke="none" 
	d="
M759.044556,711.250977 
	C759.065613,714.705505 758.791199,717.747681 759.246643,720.676331 
	C759.438965,721.912842 761.099854,723.697266 762.218811,723.794983 
	C763.338867,723.892944 765.064880,722.413513 765.648376,721.202881 
	C765.976868,720.521362 764.528992,718.989075 763.890991,717.834717 
	C763.391235,716.930542 762.635925,716.043884 762.545715,715.096924 
	C762.508606,714.707642 763.891602,713.841492 764.674866,713.779846 
	C766.962891,713.599792 769.274292,713.715759 771.837097,713.715759 
	C771.837097,716.323608 772.035950,718.483276 771.798523,720.593933 
	C771.173096,726.154480 767.903625,728.511780 761.571777,728.201904 
	C756.223877,727.940186 753.216187,725.070007 753.014648,719.826965 
	C752.886841,716.502197 752.950195,713.168335 752.989197,709.839233 
	C753.056885,704.067932 755.467468,701.209045 760.634705,700.686096 
	C767.217285,700.019897 770.385071,702.244141 771.684631,708.672241 
	C768.979919,708.994629 766.241760,710.229431 764.851318,706.261719 
	C764.593140,705.525024 761.768494,704.842773 761.659363,705.029602 
	C760.600952,706.841614 759.869080,708.844421 759.044556,711.250977 
z"/>
<path fill="#EAEAEA" opacity="1.000000" stroke="none" 
	d="
M900.940002,706.066650 
	C898.921753,706.020081 897.104797,706.331543 895.287903,706.643005 
	C896.356140,708.231812 897.132874,710.196289 898.569275,711.310486 
	C900.215942,712.587830 902.554077,712.927795 904.401978,714.001648 
	C907.708191,715.922913 908.588135,719.067932 907.866516,722.627747 
	C907.137817,726.223145 904.551331,727.764099 901.096191,728.185608 
	C893.974854,729.054382 890.201660,726.595642 889.160950,720.281189 
	C891.939087,719.716187 894.561829,719.000488 896.099304,722.676636 
	C896.442932,723.498413 898.624939,723.821838 899.966125,723.835510 
	C900.586975,723.841797 901.816162,722.465027 901.727661,721.870239 
	C901.532104,720.555603 901.005676,718.846436 900.019897,718.187866 
	C898.122681,716.920349 895.787476,716.325256 893.680054,715.351624 
	C889.802979,713.560486 888.404968,710.396423 889.166138,706.335632 
	C889.891235,702.467590 892.721252,701.001587 896.339661,700.584167 
	C903.054443,699.809448 906.695374,702.374390 907.730591,710.271912 
	C904.933167,708.638611 903.037292,707.531677 900.940002,706.066650 
z"/>
<path fill="#EAEAEA" opacity="1.000000" stroke="none" 
	d="
M862.946289,711.158691 
	C864.232483,711.650391 865.176086,711.969482 866.098389,712.341492 
	C871.707825,714.604004 873.892822,717.754578 872.914612,722.419922 
	C871.939880,727.068848 868.450989,728.209106 864.300842,728.305603 
	C859.388306,728.419678 854.251587,726.482544 854.139954,720.257507 
	C856.754822,719.998352 859.437683,718.681946 860.983154,722.542297 
	C861.322876,723.390930 863.490845,723.881409 864.787781,723.828125 
	C865.527039,723.797668 866.877441,722.228882 866.768982,721.538818 
	C866.568787,720.264465 865.773987,718.695862 864.729248,718.026062 
	C862.802673,716.790894 860.475159,716.201721 858.388977,715.190125 
	C854.742676,713.422058 853.490295,710.339355 854.133972,706.490173 
	C854.787537,702.581787 857.577759,701.085876 861.193909,700.613831 
	C867.922058,699.735657 871.470459,702.137390 872.893555,709.931458 
	C870.228699,708.741272 868.291199,707.926331 866.400513,707.014343 
	C865.062805,706.369202 863.850281,705.351868 862.455322,704.994446 
	C861.905640,704.853455 860.293823,706.289001 860.396851,706.604126 
	C860.901550,708.147461 861.821045,709.555115 862.946289,711.158691 
z"/>
<path fill="#EEEEEE" opacity="1.000000" stroke="none" 
	d="
M371.975037,728.016724 
	C370.665588,727.162415 369.112152,726.324341 369.091400,725.449890 
	C368.902466,717.480103 368.980469,709.504028 368.980469,701.122192 
	C370.948151,701.034363 372.677826,700.957214 374.787354,700.863098 
	C374.787354,704.553162 374.787354,707.967041 374.787354,711.974060 
	C379.571869,708.328552 378.397736,698.188782 387.789948,701.300415 
	C387.766357,701.747620 387.880859,702.188843 387.713745,702.369507 
	C380.482147,710.188049 380.345154,717.935486 387.831360,725.689514 
	C388.228149,726.100464 388.229828,726.892944 388.457642,727.647583 
	C378.371490,730.294495 379.968597,720.002502 374.982941,716.066223 
	C374.982941,719.255615 375.218231,722.127258 374.866730,724.925171 
	C374.726746,726.039429 373.288910,726.990662 371.975037,728.016724 
z"/>
<path fill="#EDEDED" opacity="1.000000" stroke="none" 
	d="
M688.182739,728.019531 
	C686.793457,726.883728 685.136353,725.773071 685.100647,724.612549 
	C684.865356,716.963562 684.979065,709.303833 684.979065,701.267944 
	C690.666199,701.267944 696.239868,701.267944 701.860535,701.267944 
	C702.580872,704.529602 702.580872,704.529602 691.312866,705.229980 
	C691.190552,706.265686 691.009644,707.358459 690.945923,708.458130 
	C690.881104,709.576355 690.931580,710.701233 690.931580,712.260498 
	C693.312317,712.260498 695.305969,712.029785 697.209229,712.344971 
	C698.395386,712.541443 699.445007,713.562622 700.555908,714.213623 
	C699.387634,714.969666 698.302917,716.113281 697.030762,716.387512 
	C695.284119,716.764038 693.395386,716.481750 691.302002,716.481750 
	C691.162598,717.788818 690.971069,718.894836 690.946594,720.004517 
	C690.921753,721.136047 691.061035,722.271118 691.159241,723.922729 
	C694.317749,723.922729 697.277039,723.791138 700.210876,724.006592 
	C701.041809,724.067627 701.798340,725.141846 702.588989,725.751404 
	C701.780273,726.503967 701.008972,727.852844 700.156250,727.906494 
	C696.338440,728.146423 692.497375,728.017395 688.182739,728.019531 
z"/>
<path fill="#EEEEEE" opacity="1.000000" stroke="none" 
	d="
M421.517212,702.081299 
	C420.537018,703.336914 419.541779,704.720947 418.374420,704.885681 
	C415.798553,705.249390 413.135986,704.998779 410.218201,704.998779 
	C410.218201,707.403015 410.218201,709.475891 410.218201,712.272888 
	C412.527802,712.272888 414.961182,712.106262 417.347687,712.367676 
	C418.132202,712.453613 418.795288,713.648254 419.513916,714.335938 
	C418.825104,715.046509 418.198425,716.278870 417.435760,716.369690 
	C415.151184,716.641785 412.813446,716.467590 410.210144,716.467590 
	C410.210144,718.978027 410.210144,721.200562 410.210144,723.923096 
	C413.358673,723.923096 416.313904,723.792297 419.243927,724.006470 
	C420.072601,724.067078 420.827515,725.136230 421.616241,725.742798 
	C420.802307,726.499817 420.015503,727.874451 419.169983,727.911621 
	C414.366486,728.122498 409.548981,728.013855 404.357056,728.013855 
	C404.357056,719.045654 404.357056,710.207764 404.357056,700.578552 
	C410.085236,700.940430 415.754669,701.298523 421.517212,702.081299 
z"/>
<path fill="#EBEBEB" opacity="1.000000" stroke="none" 
	d="
M607.801514,700.878906 
	C609.760254,700.878845 611.252380,700.878845 612.699219,700.878845 
	C613.689331,704.652466 613.689331,704.652466 602.328552,705.167358 
	C602.328552,707.329346 602.328552,709.523499 602.328552,712.260620 
	C604.563843,712.260620 606.868469,712.044434 609.095276,712.366455 
	C609.991089,712.496033 610.716125,713.805786 611.518860,714.578369 
	C610.751343,715.213562 610.034973,716.303467 609.206482,716.396667 
	C606.947144,716.650818 604.640564,716.484070 602.069824,716.484070 
	C602.069824,720.400940 602.069824,723.846375 602.069824,727.772766 
	C600.079041,727.875671 598.345398,727.965332 596.286255,728.071777 
	C596.286255,719.118286 596.286255,710.373962 596.286255,700.878967 
	C599.855469,700.878967 603.595154,700.878967 607.801514,700.878906 
z"/>
<path fill="#F1F1F1" opacity="1.000000" stroke="none" 
	d="
M303.044739,700.905396 
	C305.822540,700.636841 307.183746,701.038696 307.078735,703.989075 
	C306.848938,710.444397 307.007629,716.913513 307.007629,723.740479 
	C309.821625,723.740479 312.420410,723.740479 314.926453,723.740479 
	C316.172485,728.546387 314.462189,728.998291 300.999908,727.610535 
	C300.999908,719.244141 300.973572,710.808411 301.067139,702.374023 
	C301.072601,701.881714 302.048187,701.400085 303.044739,700.905396 
z"/>
<path fill="#F1F1F1" opacity="1.000000" stroke="none" 
	d="
M794.157776,723.870667 
	C796.123108,723.911316 797.675415,723.682190 799.102844,724.005005 
	C800.112915,724.233459 800.953979,725.209045 801.870483,725.851196 
	C801.031860,726.571045 800.225830,727.862366 799.348999,727.912354 
	C795.402710,728.137512 791.436279,728.010559 787.219116,728.010559 
	C787.219116,718.873779 787.219116,710.138184 787.219116,701.145874 
	C789.082031,701.145874 790.813538,701.145874 792.851196,701.145874 
	C792.851196,707.064697 792.787842,712.852112 792.889709,718.636597 
	C792.920349,720.374146 793.411316,722.103638 794.157776,723.870667 
z"/>
<path fill="#F1F1F1" opacity="1.000000" stroke="none" 
	d="
M462.873291,725.998108 
	C460.852173,726.969910 458.855743,727.756470 456.803131,727.951355 
	C454.051392,728.212585 451.256195,728.015930 448.220428,728.015930 
	C448.220428,718.914307 448.220428,710.216980 448.220428,701.122192 
	C449.967346,701.038757 451.696198,700.956238 453.781219,700.856689 
	C453.781219,708.512817 453.781219,715.895447 453.781219,722.933716 
	C457.082184,723.883362 459.977570,724.716370 462.873291,725.998108 
z"/>
<path fill="#EEEEEE" opacity="1.000000" stroke="none" 
	d="
M630.051453,714.002075 
	C630.051025,709.530334 630.051025,705.555115 630.051025,701.133850 
	C631.906860,701.037109 633.637695,700.946960 635.689575,700.840027 
	C635.689575,709.829407 635.689575,718.567871 635.689575,727.786621 
	C634.061768,727.866699 632.331482,727.951904 630.051880,728.064148 
	C630.051880,723.363770 630.051880,718.931274 630.051453,714.002075 
z"/>
<path fill="#1D1D1D" opacity="1.000000" stroke="none" 
	d="
M660.408936,716.503418 
	C661.720093,718.173401 663.784607,720.633972 663.344727,721.222351 
	C662.147522,722.823975 659.891174,723.633789 657.535217,724.153442 
	C658.280762,721.260376 653.585938,716.865784 660.408936,716.503418 
z"/>
<path fill="#000000" opacity="1.000000" stroke="none" 
	d="
M661.497437,705.322144 
	C662.177979,707.327087 663.238403,709.603760 662.515564,710.825317 
	C661.830444,711.983337 659.276489,712.035583 657.125244,712.704407 
	C657.125244,709.690063 657.125244,707.587280 657.125244,705.132996 
	C658.565063,705.132996 659.831665,705.132996 661.497437,705.322144 
z"/>
<path fill="#000000" opacity="1.000000" stroke="none" 
	d="
M724.951965,707.269653 
	C726.493103,706.360107 728.022583,705.905212 729.552002,705.450317 
	C730.061035,707.221741 731.455078,709.424194 730.855286,710.655579 
	C730.104187,712.197693 727.715942,712.942505 724.940308,714.739990 
	C724.940308,711.266174 724.940308,709.495178 724.951965,707.269653 
z"/>
<path fill="#1D1D1D" opacity="1.000000" stroke="none" 
	d="
M828.958496,708.070435 
	C829.690979,711.680359 830.350708,714.883484 831.086731,718.457153 
	C828.858215,718.457153 827.118103,718.457153 824.501587,718.457153 
	C825.441345,714.055298 826.318298,709.947754 827.339417,705.164856 
	C828.083313,706.366943 828.484497,707.015320 828.958496,708.070435 
z"/>
<path fill="#1D1D1D" opacity="1.000000" stroke="none" 
	d="
M342.875549,718.763794 
	C339.546997,718.982178 339.672058,717.156372 340.102142,715.200989 
	C340.776581,712.134705 341.506531,709.080750 343.313599,705.780640 
	C344.141449,709.741089 345.011139,713.694519 345.684540,717.681091 
	C345.721680,717.901062 344.128723,718.396423 342.875549,718.763794 
z"/>
<path fill="#1D1D1D" opacity="1.000000" stroke="none" 
	d="
M490.903198,707.640442 
	C491.644348,711.363403 492.317413,714.718811 493.064941,718.445435 
	C490.895905,718.445435 489.163452,718.445435 486.519073,718.445435 
	C487.463531,714.020020 488.349243,709.869934 489.400513,704.943970 
	C490.178680,706.207275 490.506866,706.740112 490.903198,707.640442 
z"/>
<path fill="#0C0C0C" opacity="1.000000" stroke="none" 
	d="
M560.530457,705.032715 
	C563.491394,707.239502 565.427429,718.278076 563.290771,721.630554 
	C562.323730,723.147705 559.764282,723.649963 556.917480,725.141907 
	C556.917480,718.241394 556.782776,712.785583 557.059448,707.350647 
	C557.102051,706.514099 559.036560,705.773804 560.530457,705.032715 
z"/>
</svg>